<?xml version="1.0" encoding="UTF-8" standalone="no"?>
<svg
   xmlns:dc="http://purl.org/dc/elements/1.1/"
   xmlns:cc="http://creativecommons.org/ns#"
   xmlns:rdf="http://www.w3.org/1999/02/22-rdf-syntax-ns#"
   xmlns:svg="http://www.w3.org/2000/svg"
   xmlns="http://www.w3.org/2000/svg"
   xmlns:sodipodi="http://sodipodi.sourceforge.net/DTD/sodipodi-0.dtd"
   xmlns:inkscape="http://www.inkscape.org/namespaces/inkscape"
   width="132.29167mm"
   height="115.81228mm"
   viewBox="0 0 132.29167 115.81228"
   version="1.1"
   id="svg116"
   inkscape:version="1.0.2-2 (e86c870879, 2021-01-15)"
   sodipodi:docname="ea-foot.svg">
  <defs
     id="defs110">
    <clipPath
       clipPathUnits="userSpaceOnUse"
       id="clipPath32">
      <path
         d="M 0,141.73 H 255.12 V 0 H 0 Z"
         id="path30" />
    </clipPath>
  </defs>
  <sodipodi:namedview
     id="base"
     pagecolor="#ffffff"
     bordercolor="#666666"
     borderopacity="1.0"
     inkscape:pageopacity="0.0"
     inkscape:pageshadow="2"
     inkscape:zoom="0.35"
     inkscape:cx="258.57145"
     inkscape:cy="210.28639"
     inkscape:document-units="mm"
     inkscape:current-layer="layer1"
     inkscape:document-rotation="0"
     showgrid="false"
     inkscape:window-width="1543"
     inkscape:window-height="1198"
     inkscape:window-x="397"
     inkscape:window-y="72"
     inkscape:window-maximized="0" />
  <metadata
     id="metadata113">
    <rdf:RDF>
      <cc:Work
         rdf:about="">
        <dc:format>image/svg+xml</dc:format>
        <dc:type
           rdf:resource="http://purl.org/dc/dcmitype/StillImage" />
        <dc:title></dc:title>
      </cc:Work>
    </rdf:RDF>
  </metadata>
  <g
     inkscape:label="Στρώση 1"
     inkscape:groupmode="layer"
     id="layer1"
     transform="translate(-37.419636,-92.528394)">
    <g
       id="g26"
       transform="matrix(2.3653505,0,0,-2.3653505,10.670822,254.41186)"
       style="image-rendering:auto">
      <g
         id="g28"
         clip-path="url(#clipPath32)">
        <g
           id="g34"
           transform="translate(67.2354,44.2471)">
          <path
             d="m 0,0 c 0,-4.584 0.003,-9.169 -0.004,-13.754 -0.007,-5.325 -2.257,-8.372 -7.364,-9.6 -4.529,-1.09 -9.105,-1.054 -13.576,0.355 -4.128,1.303 -6.11,4.127 -6.121,8.454 -0.018,5.399 0.04,10.799 -0.037,16.194 -0.018,1.445 0.416,1.917 1.875,1.885 3.915,-0.087 7.837,0.043 11.756,-0.065 1.596,-0.043 2.026,0.506 1.961,2.025 -0.109,2.657 -0.015,5.322 -0.036,7.986 -0.015,1.488 0.101,3.259 -2.044,3.228 -2.179,-0.035 -1.896,-1.881 -1.929,-3.317 -0.051,-2.145 -0.072,-4.291 0.003,-6.433 0.051,-1.293 -0.307,-1.893 -1.718,-1.853 -2.735,0.08 -5.472,0.066 -8.206,0.007 -1.253,-0.027 -1.68,0.451 -1.65,1.691 0.068,2.882 -0.043,5.769 0.036,8.651 0.112,4.017 2.625,6.909 7.064,7.973 4.225,1.011 8.516,1.023 12.745,0.021 4.847,-1.148 7.227,-4.283 7.241,-9.249 C 0.007,9.467 0,4.732 0,0"
             style="fill:#231f20;fill-opacity:1;fill-rule:evenodd;stroke:none"
             id="path36" />
        </g>
        <g
           id="g38"
           transform="translate(11.3179,43.7324)">
          <path
             d="m 0,0 c 0,4.584 -0.003,9.169 0,13.751 0.007,5.257 2.164,8.228 7.169,9.518 4.594,1.183 9.238,1.13 13.778,-0.292 4.131,-1.297 6.103,-4.124 6.117,-8.456 0.019,-5.25 -0.068,-10.501 0.044,-15.749 0.04,-1.789 -0.382,-2.459 -2.297,-2.386 -3.839,0.147 -7.689,-0.007 -11.531,0.067 -1.362,0.026 -1.802,-0.438 -1.766,-1.783 0.082,-2.956 0.014,-5.916 0.04,-8.872 0.01,-1.378 0.389,-2.58 2.072,-2.548 1.589,0.03 1.864,1.232 1.878,2.491 0.037,2.515 0.065,5.029 0.015,7.542 -0.025,1.134 0.372,1.596 1.523,1.577 2.811,-0.041 5.621,-0.031 8.43,0 1.066,0.014 1.636,-0.273 1.614,-1.49 -0.061,-3.03 0.101,-6.071 -0.061,-9.093 -0.188,-3.511 -2.084,-6.025 -5.388,-7.163 -5.172,-1.78 -10.477,-1.816 -15.678,-0.155 -3.947,1.259 -5.923,4.236 -5.952,8.403 C -0.025,-9.758 0,-4.879 0,0"
             style="fill:#231f20;fill-opacity:1;fill-rule:evenodd;stroke:none"
             id="path40" />
        </g>
        <g
           id="g42"
           transform="translate(55.6494,34.4941)">
          <path
             d="m 0,0 c 0,-1.617 0.05,-3.239 -0.018,-4.854 -0.051,-1.163 -0.636,-1.922 -1.936,-1.936 -1.318,-0.014 -1.9,0.776 -1.925,1.929 -0.072,3.232 -0.025,6.469 -0.072,9.707 -0.026,1.595 1.112,1.249 1.997,1.248 C -1.077,6.09 0.086,6.451 0.047,4.854 0.011,3.236 0.04,1.618 0.04,0 Z"
             style="fill:#fdfdfd;fill-opacity:1;fill-rule:evenodd;stroke:none"
             id="path44" />
        </g>
        <g
           id="g46"
           transform="translate(26.8477,53.21)">
          <path
             d="m 0,0 c 0,-1.405 -0.105,-2.817 0.029,-4.209 0.165,-1.696 -0.802,-1.711 -2.026,-1.714 -1.232,-0.005 -2.109,0.031 -2.03,1.719 0.133,2.874 0.026,5.762 0.051,8.644 0.01,1.338 0.234,2.591 1.99,2.596 1.78,0.006 1.939,-1.284 1.971,-2.601 C 0.021,2.957 -0.007,1.479 -0.007,0 Z"
             style="fill:#ffffff;fill-opacity:1;fill-rule:evenodd;stroke:none"
             id="path48" />
        </g>
      </g>
    </g>
    <path
       style="fill:#ffffff;stroke-width:2.85714"
       d="M 97.142879,434.5017 C 44.838096,428.36479 14.922246,409.8115 5.5259551,377.6825 3.5479203,370.91893 2.8265771,315.81305 3.4065394,215.77298 L 4.2857357,64.116707 12.950677,50.105136 C 27.719141,26.223913 51.766539,14.370095 97.288181,8.5321789 115.61421,6.1819603 128.4302,6.1867151 146.07206,8.5502646 193.02627,14.840943 219.1325,28.220848 232.2258,52.705596 c 6.11166,11.428923 6.37738,15.194163 7.20603,102.109684 0.70576,74.02476 0.15177,90.83129 -3.08246,93.51547 -2.63798,2.18933 -25.14317,3.52717 -68.00324,4.04252 l -64.06039,0.77026 -0.77887,53.98937 c -0.87472,60.63389 0.23808,64.58206 18.20253,64.58206 16.06378,0 18.28416,-6.56474 18.33437,-54.20717 0.024,-22.82891 1.08458,-43.14719 2.3567,-45.15172 1.7561,-2.76714 13.61137,-3.45501 49.24197,-2.85714 l 46.92901,0.78746 0.78034,50.74537 c 0.71635,46.58397 0.27674,51.91603 -5.36079,65.0208 -6.65297,15.46523 -20.17122,29.10712 -34.9711,35.29089 -26.85841,11.22217 -70.42245,16.84883 -101.877021,13.15825 z M 137.85716,186.92464 c 1.17858,-0.69366 2.14286,-24.32818 2.14286,-52.52116 0,-47.450424 -0.42467,-51.684619 -5.71428,-56.974233 -7.1679,-7.167894 -20.46878,-7.374774 -26.7661,-0.416314 -4.18604,4.625517 -4.69556,11.953091 -4.01425,57.730687 l 0.78035,52.43272 7.14285,2.0128 c 6.66415,1.87792 21.55873,0.60169 26.42857,-2.2645 z"
       id="path19"
       transform="matrix(0.26458333,0,0,0.26458333,37.419636,92.528394)" />
    <path
       style="fill:#ffffff;stroke-width:2.85714"
       d="m 353.74342,428.80828 c -43.14702,-5.1968 -70.70454,-18.89963 -84.20732,-41.8716 l -8.10751,-13.79315 -0.86596,-89.52448 c -0.6337,-65.51376 0.0349,-90.60991 2.4927,-93.57144 2.705,-3.25932 15.20036,-4.04693 64.20371,-4.04693 33.46478,0 62.87878,-0.78042 65.36445,-1.73426 3.89959,-1.49641 4.51939,-9.10926 4.51939,-55.5102 0,-59.81129 -0.8601,-62.755544 -18.33269,-62.755544 -17.02838,0 -18.81017,5.062705 -18.81017,53.446564 0,33.12853 -0.90739,43.74968 -3.95363,46.27783 -2.70386,2.244 -18.28346,3.03197 -49.28571,2.4927 l -45.33209,-0.78852 -0.77627,-51.50511 c -0.77358,-51.326144 -0.74876,-51.559376 7.14286,-67.123233 9.37574,-18.490866 26.19067,-32.22141 47.04306,-38.413904 26.02118,-7.7274616 61.06548,-10.6732876 88.00527,-7.3977279 47.55188,5.7817478 69.98663,16.9370589 84.82262,42.1766489 l 8.04818,13.691895 0.8478,150.000001 c 0.91059,161.10883 0.58449,165.5414 -13.62059,185.13677 -18.5643,25.60877 -76.34808,41.17917 -129.1981,34.81369 z m 37.04944,-67.25532 c 6.18193,-4.33 6.35002,-5.88046 6.35002,-58.57143 0,-46.04647 -0.63959,-54.17701 -4.28572,-54.48085 -34.66707,-2.88893 -32.85714,-5.90446 -32.85714,54.74337 0,47.51854 0.42411,51.75217 5.71429,57.04234 6.85,6.85 16.41723,7.3332 25.07855,1.26657 z"
       id="path21"
       transform="matrix(0.26458333,0,0,0.26458333,37.419636,92.528394)" />
  </g>
</svg>
