<?xml version="1.0" encoding="UTF-8" standalone="no"?>
<svg
   xmlns:dc="http://purl.org/dc/elements/1.1/"
   xmlns:cc="http://creativecommons.org/ns#"
   xmlns:rdf="http://www.w3.org/1999/02/22-rdf-syntax-ns#"
   xmlns:svg="http://www.w3.org/2000/svg"
   xmlns="http://www.w3.org/2000/svg"
   xmlns:sodipodi="http://sodipodi.sourceforge.net/DTD/sodipodi-0.dtd"
   xmlns:inkscape="http://www.inkscape.org/namespaces/inkscape"
   width="132.29167mm"
   height="115.81228mm"
   viewBox="0 0 132.29167 115.81228"
   version="1.1"
   id="svg116"
   inkscape:version="1.0.2-2 (e86c870879, 2021-01-15)"
   sodipodi:docname="σχεδίαση.svg">
  <defs
     id="defs110">
    <clipPath
       clipPathUnits="userSpaceOnUse"
       id="clipPath32">
      <path
         d="M 0,141.73 H 255.12 V 0 H 0 Z"
         id="path30" />
    </clipPath>
  </defs>
  <sodipodi:namedview
     id="base"
     pagecolor="#ffffff"
     bordercolor="#666666"
     borderopacity="1.0"
     inkscape:pageopacity="0.0"
     inkscape:pageshadow="2"
     inkscape:zoom="0.35"
     inkscape:cx="258.57145"
     inkscape:cy="210.28639"
     inkscape:document-units="mm"
     inkscape:current-layer="layer1"
     inkscape:document-rotation="0"
     showgrid="false"
     inkscape:window-width="1543"
     inkscape:window-height="1198"
     inkscape:window-x="397"
     inkscape:window-y="72"
     inkscape:window-maximized="0" />
  <metadata
     id="metadata113">
    <rdf:RDF>
      <cc:Work
         rdf:about="">
        <dc:format>image/svg+xml</dc:format>
        <dc:type
           rdf:resource="http://purl.org/dc/dcmitype/StillImage" />
        <dc:title></dc:title>
      </cc:Work>
    </rdf:RDF>
  </metadata>
  <g
     inkscape:label="Στρώση 1"
     inkscape:groupmode="layer"
     id="layer1"
     transform="translate(-37.419636,-92.528394)">
    <g
       id="g26"
       transform="matrix(2.3653505,0,0,-2.3653505,10.670822,254.41186)"
       style="image-rendering:auto">
      <g
         id="g28"
         clip-path="url(#clipPath32)">
        <g
           id="g34"
           transform="translate(67.2354,44.2471)">
          <path
             d="m 0,0 c 0,-4.584 0.003,-9.169 -0.004,-13.754 -0.007,-5.325 -2.257,-8.372 -7.364,-9.6 -4.529,-1.09 -9.105,-1.054 -13.576,0.355 -4.128,1.303 -6.11,4.127 -6.121,8.454 -0.018,5.399 0.04,10.799 -0.037,16.194 -0.018,1.445 0.416,1.917 1.875,1.885 3.915,-0.087 7.837,0.043 11.756,-0.065 1.596,-0.043 2.026,0.506 1.961,2.025 -0.109,2.657 -0.015,5.322 -0.036,7.986 -0.015,1.488 0.101,3.259 -2.044,3.228 -2.179,-0.035 -1.896,-1.881 -1.929,-3.317 -0.051,-2.145 -0.072,-4.291 0.003,-6.433 0.051,-1.293 -0.307,-1.893 -1.718,-1.853 -2.735,0.08 -5.472,0.066 -8.206,0.007 -1.253,-0.027 -1.68,0.451 -1.65,1.691 0.068,2.882 -0.043,5.769 0.036,8.651 0.112,4.017 2.625,6.909 7.064,7.973 4.225,1.011 8.516,1.023 12.745,0.021 4.847,-1.148 7.227,-4.283 7.241,-9.249 C 0.007,9.467 0,4.732 0,0"
             style="fill:#231f20;fill-opacity:1;fill-rule:evenodd;stroke:none"
             id="path36" />
        </g>
        <g
           id="g38"
           transform="translate(11.3179,43.7324)">
          <path
             d="m 0,0 c 0,4.584 -0.003,9.169 0,13.751 0.007,5.257 2.164,8.228 7.169,9.518 4.594,1.183 9.238,1.13 13.778,-0.292 4.131,-1.297 6.103,-4.124 6.117,-8.456 0.019,-5.25 -0.068,-10.501 0.044,-15.749 0.04,-1.789 -0.382,-2.459 -2.297,-2.386 -3.839,0.147 -7.689,-0.007 -11.531,0.067 -1.362,0.026 -1.802,-0.438 -1.766,-1.783 0.082,-2.956 0.014,-5.916 0.04,-8.872 0.01,-1.378 0.389,-2.58 2.072,-2.548 1.589,0.03 1.864,1.232 1.878,2.491 0.037,2.515 0.065,5.029 0.015,7.542 -0.025,1.134 0.372,1.596 1.523,1.577 2.811,-0.041 5.621,-0.031 8.43,0 1.066,0.014 1.636,-0.273 1.614,-1.49 -0.061,-3.03 0.101,-6.071 -0.061,-9.093 -0.188,-3.511 -2.084,-6.025 -5.388,-7.163 -5.172,-1.78 -10.477,-1.816 -15.678,-0.155 -3.947,1.259 -5.923,4.236 -5.952,8.403 C -0.025,-9.758 0,-4.879 0,0"
             style="fill:#231f20;fill-opacity:1;fill-rule:evenodd;stroke:none"
             id="path40" />
        </g>
        <g
           id="g42"
           transform="translate(55.6494,34.4941)">
          <path
             d="m 0,0 c 0,-1.617 0.05,-3.239 -0.018,-4.854 -0.051,-1.163 -0.636,-1.922 -1.936,-1.936 -1.318,-0.014 -1.9,0.776 -1.925,1.929 -0.072,3.232 -0.025,6.469 -0.072,9.707 -0.026,1.595 1.112,1.249 1.997,1.248 C -1.077,6.09 0.086,6.451 0.047,4.854 0.011,3.236 0.04,1.618 0.04,0 Z"
             style="fill:#fdfdfd;fill-opacity:1;fill-rule:evenodd;stroke:none"
             id="path44" />
        </g>
        <g
           id="g46"
           transform="translate(26.8477,53.21)">
          <path
             d="m 0,0 c 0,-1.405 -0.105,-2.817 0.029,-4.209 0.165,-1.696 -0.802,-1.711 -2.026,-1.714 -1.232,-0.005 -2.109,0.031 -2.03,1.719 0.133,2.874 0.026,5.762 0.051,8.644 0.01,1.338 0.234,2.591 1.99,2.596 1.78,0.006 1.939,-1.284 1.971,-2.601 C 0.021,2.957 -0.007,1.479 -0.007,0 Z"
             style="fill:#ffffff;fill-opacity:1;fill-rule:evenodd;stroke:none"
             id="path48" />
        </g>
      </g>
    </g>
  </g>
</svg>
